<?xml version="1.0" encoding="UTF-8"?>
<svg version="1.1" xmlns="http://www.w3.org/2000/svg" width="270" height="284">
<path d="M0 0 C3.62077274 1.53098879 5.93090295 3.68414029 8.69500732 6.45449829 C9.38004534 7.13697303 9.38004534 7.13697303 10.07892251 7.83323514 C11.60525765 9.35628073 13.12434275 10.88635545 14.64355469 12.41650391 C15.7372972 13.51081065 16.83148048 14.60467702 17.92607117 15.69813538 C20.89511071 18.66660087 23.85794139 21.64119449 26.81970501 24.61691713 C29.91644932 27.72615993 33.01885445 30.82974374 36.1206665 33.93392944 C41.99297582 39.81245611 47.86016807 45.69606267 53.72554421 51.58150613 C60.40354662 58.28185957 67.08722572 64.97653808 73.77139044 71.67074323 C87.52059148 85.44085205 101.26263862 99.21808016 115 113 C113.625 115.5 113.625 115.5 112 118 C111.34 118 110.68 118 110 118 C109.64421875 118.84304687 109.64421875 118.84304687 109.28125 119.703125 C107.71052303 122.51894042 105.78528536 124.47955416 103.5 126.75 C102.30890625 127.94882812 102.30890625 127.94882812 101.09375 129.171875 C99 131 99 131 97 131 C96.62166991 131.86588934 96.62166991 131.86588934 96.23569679 132.74927139 C94.84451896 135.283197 93.2750972 136.97092733 91.22885132 139.01165771 C90.05095284 140.19368019 90.05095284 140.19368019 88.84925842 141.39958191 C87.55561623 142.68243828 87.55561623 142.68243828 86.23583984 143.99121094 C85.32846573 144.89887711 84.42109161 145.80654327 83.48622131 146.74171448 C81.00120797 149.22730138 78.51007876 151.70667578 76.01780653 154.18498135 C73.41304986 156.77723116 70.81396002 159.37515004 68.21426392 161.97247314 C63.29196785 166.88855432 58.36459597 171.79951523 53.43538058 176.7086575 C47.82327399 182.2984054 42.21684885 187.89383688 36.61089396 193.48975325 C25.08023972 204.99950528 13.54247086 216.50209796 2 228 C-1.62077274 226.46901121 -3.93090295 224.31585971 -6.69500732 221.54550171 C-7.15169934 221.09051855 -7.60839135 220.63553539 -8.07892251 220.16676486 C-9.60525765 218.64371927 -11.12434275 217.11364455 -12.64355469 215.58349609 C-13.7372972 214.48918935 -14.83148048 213.39532298 -15.92607117 212.30186462 C-18.89511071 209.33339913 -21.85794139 206.35880551 -24.81970501 203.38308287 C-27.91644932 200.27384007 -31.01885445 197.17025626 -34.1206665 194.06607056 C-39.99297582 188.18754389 -45.86016807 182.30393733 -51.72554421 176.41849387 C-58.40354662 169.71814043 -65.08722572 163.02346192 -71.77139044 156.32925677 C-85.52059148 142.55914795 -99.26263862 128.78191984 -113 115 C-111.46901121 111.37922726 -109.31585971 109.06909705 -106.54550171 106.30499268 C-105.86302697 105.61995466 -105.86302697 105.61995466 -105.16676486 104.92107749 C-103.64371927 103.39474235 -102.11364455 101.87565725 -100.58349609 100.35644531 C-99.48918935 99.2627028 -98.39532298 98.16851952 -97.30186462 97.07392883 C-94.33339913 94.10488929 -91.35880551 91.14205861 -88.38308287 88.18029499 C-85.27384007 85.08355068 -82.17025626 81.98114555 -79.06607056 78.8793335 C-73.18754389 73.00702418 -67.30393733 67.13983193 -61.41849387 61.27445579 C-54.71814043 54.59645338 -48.02346192 47.91277428 -41.32925677 41.22860956 C-27.55914795 27.47940852 -13.78191984 13.73736138 0 0 Z " fill="#5372FF" transform="translate(134,28)"/>
<path d="M0 0 C3.62077274 1.53098879 5.93090295 3.68414029 8.69500732 6.45449829 C9.38004534 7.13697303 9.38004534 7.13697303 10.07892251 7.83323514 C11.60525765 9.35628073 13.12434275 10.88635545 14.64355469 12.41650391 C15.7372972 13.51081065 16.83148048 14.60467702 17.92607117 15.69813538 C20.89511071 18.66660087 23.85794139 21.64119449 26.81970501 24.61691713 C29.91644932 27.72615993 33.01885445 30.82974374 36.1206665 33.93392944 C41.99297582 39.81245611 47.86016807 45.69606267 53.72554421 51.58150613 C60.40354662 58.28185957 67.08722572 64.97653808 73.77139044 71.67074323 C87.52059148 85.44085205 101.26263862 99.21808016 115 113 C113.625 115.5 113.625 115.5 112 118 C111.34 118 110.68 118 110 118 C109.64421875 118.84304687 109.64421875 118.84304687 109.28125 119.703125 C107.71052303 122.51894042 105.78528536 124.47955416 103.5 126.75 C102.30890625 127.94882812 102.30890625 127.94882812 101.09375 129.171875 C99 131 99 131 97 131 C96.62166991 131.86588934 96.62166991 131.86588934 96.23569679 132.74927139 C94.84451896 135.283197 93.2750972 136.97092733 91.22885132 139.01165771 C90.05095284 140.19368019 90.05095284 140.19368019 88.84925842 141.39958191 C87.55561623 142.68243828 87.55561623 142.68243828 86.23583984 143.99121094 C85.32846573 144.89887711 84.42109161 145.80654327 83.48622131 146.74171448 C81.00120797 149.22730138 78.51007876 151.70667578 76.01780653 154.18498135 C73.41304986 156.77723116 70.81396002 159.37515004 68.21426392 161.97247314 C63.29196785 166.88855432 58.36459597 171.79951523 53.43538058 176.7086575 C47.82327399 182.2984054 42.21684885 187.89383688 36.61089396 193.48975325 C25.08023972 204.99950528 13.54247086 216.50209796 2 228 C-1.62077274 226.46901121 -3.93090295 224.31585971 -6.69500732 221.54550171 C-7.15169934 221.09051855 -7.60839135 220.63553539 -8.07892251 220.16676486 C-9.60525765 218.64371927 -11.12434275 217.11364455 -12.64355469 215.58349609 C-13.7372972 214.48918935 -14.83148048 213.39532298 -15.92607117 212.30186462 C-18.89511071 209.33339913 -21.85794139 206.35880551 -24.81970501 203.38308287 C-27.91644932 200.27384007 -31.01885445 197.17025626 -34.1206665 194.06607056 C-39.99297582 188.18754389 -45.86016807 182.30393733 -51.72554421 176.41849387 C-58.40354662 169.71814043 -65.08722572 163.02346192 -71.77139044 156.32925677 C-85.52059148 142.55914795 -99.26263862 128.78191984 -113 115 C-111.46901121 111.37922726 -109.31585971 109.06909705 -106.54550171 106.30499268 C-105.86302697 105.61995466 -105.86302697 105.61995466 -105.16676486 104.92107749 C-103.64371927 103.39474235 -102.11364455 101.87565725 -100.58349609 100.35644531 C-99.48918935 99.2627028 -98.39532298 98.16851952 -97.30186462 97.07392883 C-94.33339913 94.10488929 -91.35880551 91.14205861 -88.38308287 88.18029499 C-85.27384007 85.08355068 -82.17025626 81.98114555 -79.06607056 78.8793335 C-73.18754389 73.00702418 -67.30393733 67.13983193 -61.41849387 61.27445579 C-54.71814043 54.59645338 -48.02346192 47.91277428 -41.32925677 41.22860956 C-27.55914795 27.47940852 -13.78191984 13.73736138 0 0 Z M-1.63604164 25.38994598 C-2.61775117 26.37442089 -2.61775117 26.37442089 -3.61929321 27.37878418 C-4.74670677 28.50207375 -4.74670677 28.50207375 -5.89689636 29.64805603 C-6.72192154 30.48027176 -7.54694672 31.31248749 -8.39697266 32.16992188 C-9.26533249 33.03798965 -10.13369232 33.90605743 -11.02836609 34.8004303 C-13.41404933 37.18727098 -15.79519843 39.57847434 -18.1744771 41.97168922 C-20.65998502 44.46967049 -23.15112975 46.96201704 -25.64169312 49.45495605 C-30.35950694 54.17899466 -35.07219795 58.90810996 -39.78308904 63.63905096 C-45.14548243 69.02377234 -50.51353258 74.40283912 -55.88207555 79.78142834 C-66.9277093 90.8479867 -77.96618468 101.92165738 -89 113 C-87.59186573 116.18963306 -85.91953332 118.3280734 -83.45663452 120.78387451 C-82.72185379 121.52140457 -81.98707306 122.25893463 -81.23002625 123.01881409 C-80.0205407 124.21751381 -80.0205407 124.21751381 -78.78662109 125.44042969 C-77.9377684 126.28957443 -77.08891571 127.13871918 -76.21434021 128.01359558 C-73.88961079 130.33717119 -71.56050655 132.65625126 -69.22938108 134.97340679 C-66.79278611 137.39749135 -64.36186129 139.82724848 -61.93032837 142.25640869 C-57.32677578 146.85374743 -52.71814913 151.44596453 -48.10767615 156.03636193 C-42.8583182 161.26335793 -37.61464448 166.49604043 -32.3714397 171.72920752 C-21.58727064 182.49247673 -10.79598816 193.24858507 0 204 C3.19259029 202.47828743 5.3760584 200.88083113 7.890625 198.375 C8.59960938 197.66859375 9.30859375 196.9621875 10.0390625 196.234375 C10.76867187 195.49703125 11.49828125 194.7596875 12.25 194 C12.99507813 193.26265625 13.74015625 192.5253125 14.5078125 191.765625 C15.21164063 191.05921875 15.91546875 190.3528125 16.640625 189.625 C17.28547852 188.97789062 17.93033203 188.33078125 18.59472656 187.6640625 C20.21506609 186.10833644 20.21506609 186.10833644 20 184 C20.928125 183.62875 20.928125 183.62875 21.875 183.25 C24.13746494 182.17856271 24.13746494 182.17856271 25 180 C26 178 26 178 27.83331299 177.0880127 C30.25004274 175.87443979 31.75528631 174.49853957 33.66699219 172.59179688 C34.71762848 171.55061707 34.71762848 171.55061707 35.78948975 170.48840332 C36.90689545 169.36492493 36.90689545 169.36492493 38.046875 168.21875 C39.20367767 167.0648175 39.20367767 167.0648175 40.3838501 165.88757324 C42.01015129 164.26263173 43.63393476 162.63516701 45.25537109 161.00537109 C47.74746268 158.50254825 50.25006592 156.01059437 52.75390625 153.51953125 C54.33137112 151.94074532 55.90821577 150.36133939 57.484375 148.78125 C58.23740906 148.0322644 58.99044312 147.28327881 59.76629639 146.51159668 C60.45411194 145.81747681 61.14192749 145.12335693 61.85058594 144.40820312 C62.46029236 143.79690552 63.06999878 143.18560791 63.69818115 142.55578613 C65.21391128 141.0824569 65.21391128 141.0824569 65 139 C65.55268555 138.77328613 66.10537109 138.54657227 66.67480469 138.31298828 C69.68883384 136.6110302 71.76980213 134.45380482 74.203125 131.9921875 C74.6857782 131.50670441 75.1684314 131.02122131 75.66571045 130.52102661 C77.19858562 128.97700134 78.72434004 127.42615176 80.25 125.875 C81.29120361 124.82375991 82.33286541 123.77297343 83.375 122.72265625 C85.92199464 120.15366996 88.46265177 117.57851839 91 115 C89.59307782 111.81655192 87.92376029 109.67269697 85.47009277 107.21612549 C84.73820236 106.47859543 84.00631195 105.74106537 83.25224304 104.98118591 C82.44906143 104.18205276 81.64587982 103.38291962 80.81835938 102.55957031 C79.97271927 101.71042557 79.12707916 100.86128082 78.2558136 99.98640442 C75.93937607 97.66267643 73.61849891 95.34350231 71.29524422 93.02659321 C68.86550505 90.60191945 66.44065142 88.17236776 64.01501465 85.74359131 C59.94312607 81.66806606 55.86704242 77.59677216 51.78857422 73.52783203 C47.0689265 68.81908289 42.35654675 64.10315217 37.64784956 59.38345456 C33.60647529 55.33301631 29.56123155 51.28647359 25.51270342 47.24318576 C23.0938465 44.82745157 20.67637242 42.41037522 18.26237488 39.98978424 C15.57359241 37.29595065 12.87853078 34.60856483 10.18164062 31.92285156 C9.37845901 31.11562149 8.5752774 30.30839142 7.74775696 29.47669983 C6.64992134 28.38732368 6.64992134 28.38732368 5.52990723 27.27593994 C4.89278053 26.6395673 4.25565384 26.00319466 3.59922028 25.34753799 C1.36529548 23.46518408 0.58531421 23.50272957 -1.63604164 25.38994598 Z " fill="#FEFEFF" transform="translate(134,28)"/>
<path d="M0 0 C2.13664531 1.62974463 3.92594615 3.18294917 5.8125 5.0625 C6.87558408 6.08147878 7.9393866 7.09970855 9.00390625 8.1171875 C9.77371826 8.86307129 9.77371826 8.86307129 10.55908203 9.62402344 C12.39891787 11.38093885 14.31334668 13.03846846 16.25 14.6875 C17.50206863 15.78932039 18.7520236 16.89354669 20 18 C20.75925781 18.65742188 21.51851562 19.31484375 22.30078125 19.9921875 C27.95370628 25.166713 27.95370628 25.166713 28.1875 29.375 C27 32 27 32 24 34 C21.31504972 34.56770179 19.71601957 34.45889264 17.38330078 32.96386719 C15.54654587 31.49508783 13.80129047 29.95844105 12.0625 28.375 C11.46759766 27.85292969 10.87269531 27.33085937 10.25976562 26.79296875 C7.28392867 24.15862128 4.50004162 21.463042 1.80859375 18.5390625 C0.88175781 17.70117188 -0.04507813 16.86328125 -1 16 C-4.39026238 16.26082198 -6.14252715 17.74730821 -8.53125 20.0546875 C-9.17707031 20.66957031 -9.82289063 21.28445312 -10.48828125 21.91796875 C-11.15214844 22.56378906 -11.81601563 23.20960938 -12.5 23.875 C-13.82126304 25.14495185 -15.14413153 26.41323591 -16.46875 27.6796875 C-17.05076172 28.24413574 -17.63277344 28.80858398 -18.23242188 29.39013672 C-23.16254689 33.88036384 -23.16254689 33.88036384 -27.0625 34.4375 C-30 34 -30 34 -31.875 32.3125 C-33.30776249 29.36737711 -33.75183044 28.2328709 -33 25 C-30.92544567 22.37851771 -28.50052544 20.20943373 -26 18 C-25.38640625 17.45472656 -24.7728125 16.90945312 -24.140625 16.34765625 C-22.85203865 15.21614964 -21.55749369 14.09140143 -20.2578125 12.97265625 C-16.54845706 9.73178342 -12.94146913 6.37778908 -9.3203125 3.0390625 C-6.10425511 0.21283025 -4.27078267 -0.59096422 0 0 Z " fill="#F9FAFF" transform="translate(138,120)"/>
</svg>
